<?xml version="1.0" standalone="no"?>
<!DOCTYPE svg PUBLIC "-//W3C//DTD SVG 20010904//EN"
 "http://www.w3.org/TR/2001/REC-SVG-20010904/DTD/svg10.dtd">
<svg version="1.0" xmlns="http://www.w3.org/2000/svg"
 width="344.000000pt" height="375.000000pt" viewBox="0 0 344.000000 375.000000"
 preserveAspectRatio="xMidYMid meet">

<g transform="translate(0.000000,375.000000) scale(0.100000,-0.100000)"
fill="#000000" stroke="none">
<path d="M1475 3204 c-325 -51 -599 -187 -810 -400 -108 -109 -188 -233 -265
-409 -59 -137 -82 -390 -46 -509 33 -111 123 -258 174 -285 18 -9 18 -4 14
122 -4 124 -6 135 -33 177 -104 166 -64 416 111 685 95 146 280 305 455 393
81 40 216 87 312 108 120 26 353 24 461 -5 218 -57 394 -199 493 -396 22 -44
45 -83 52 -87 7 -4 55 -8 107 -8 133 0 138 5 132 112 -4 75 -8 87 -39 130 -19
26 -72 82 -118 125 -126 119 -293 200 -489 239 -112 22 -394 26 -511 8z"/>
<path d="M1525 2918 c-77 -15 -170 -31 -207 -34 -80 -8 -86 -11 -94 -53 -6
-31 -5 -33 15 -26 32 10 80 -13 87 -42 4 -13 2 -47 -4 -76 -6 -29 -9 -53 -7
-55 1 -1 44 4 96 13 52 8 111 15 132 15 21 0 39 5 41 13 2 6 23 70 45 141 23
71 40 129 39 130 -2 2 -66 -10 -143 -26z"/>
<path d="M2774 2818 c-44 -34 -49 -46 -54 -151 -5 -93 -7 -100 -33 -123 -15
-13 -46 -28 -70 -35 -60 -16 -242 -6 -492 27 -272 36 -626 41 -765 10 -353
-77 -602 -289 -700 -594 -26 -79 -30 -108 -30 -201 0 -143 23 -223 84 -286 39
-42 46 -45 93 -45 61 0 98 25 112 77 13 47 -7 94 -77 181 -74 90 -87 158 -57
277 25 95 65 165 136 236 106 106 254 169 471 200 91 12 402 18 413 7 6 -6
-105 -491 -151 -663 -33 -123 -104 -428 -101 -432 11 -10 240 48 259 66 4 4
62 221 128 483 66 262 124 488 130 502 l10 26 147 -6 c223 -10 433 19 542 75
49 26 124 101 147 148 25 52 25 148 0 186 -21 31 -64 57 -94 57 -11 0 -32 -10
-48 -22z"/>
<path d="M2690 2324 c-25 -8 -90 -20 -145 -27 l-100 -13 -3 -49 c-1 -28 -9
-98 -17 -157 -48 -334 -240 -624 -503 -758 -162 -82 -291 -112 -487 -113 -123
0 -258 13 -272 27 -3 3 14 43 37 91 55 113 121 297 169 470 44 157 121 476
121 500 0 14 -9 15 -57 10 -85 -10 -195 -33 -206 -44 -8 -8 -16 -36 -102 -366
-25 -99 -62 -228 -81 -286 -19 -59 -34 -113 -34 -120 0 -7 -20 -55 -45 -106
-55 -111 -94 -149 -162 -158 -153 -20 -147 -18 -164 -55 l-17 -35 297 -7 c163
-4 346 -11 406 -16 160 -14 344 -7 450 16 329 74 550 213 741 469 137 184 222
412 240 651 7 103 10 100 -66 76z"/>
<path d="M1584 1017 l-111 -10 -37 -120 c-43 -139 -72 -201 -113 -239 -41 -39
-127 -76 -209 -90 -72 -12 -72 -12 -84 -51 -6 -21 -9 -41 -7 -44 3 -2 38 0 79
6 158 22 301 23 523 6 211 -16 298 -15 376 5 30 8 38 16 47 49 17 53 16 54
-23 47 -129 -25 -350 -28 -385 -6 -9 5 2 66 39 228 28 121 51 223 51 226 0 3
-8 5 -17 4 -10 -1 -68 -6 -129 -11z"/>
</g>
</svg>
